<svg height="34" width="124"  xmlns="http://www.w3.org/2000/svg" viewBox="0 0 145 40"><g fill="#fff"><path d="m138.1 13.1-6.1 9.5-.6-9.5h-8.8c.8-2.8 1.5-5 1.5-5l.3-1.1h-6.8l-.3 1.1-1.5 5h-7.2c-5.9 0-9.2 1.7-10.6 4.9-.8-2.9-3.4-4.9-7.5-4.9-3.3 0-6.5 1.2-8.9 3.4-1.2-2-3.5-3.4-6.8-3.4-3.5 0-6.9 1.3-9.4 3.8-1.1-2.3-3.6-3.8-7.1-3.8-1.2 0-2.3.2-3.5.5l.5-1.8v-.1L56.8 7h-6.7l-4.3 14.7-.3.9c-.2.6-.3 1.3-.4 2-.6 4.1 1.2 7.2 6.3 7.4.5.1 1 .1 1.5.1 3.5 0 6.8-1.4 9.3-3.8 1 2.3 3.4 3.8 7.2 3.8 3.2 0 6.4-1.2 8.8-3.4 1.1 2 3.5 3.4 7 3.4h16.9c5.2 0 8.2-1 9.7-3.3 0 2.1 1.2 3.3 4.3 3.3 2.5 0 5.8-.5 10.4-1.7l-6.7 9.5h6.7l18.4-26.8h-6.8zm-79.2 9.5c-.6 2.2-2.7 3.9-4.5 3.9-1.9 0-2.9-1.7-2.2-3.9s2.7-3.9 4.5-3.9 2.9 1.8 2.2 3.9m16.5 0c-.6 2.2-2.7 3.9-4.5 3.9s-2.8-1.7-2.2-3.9 2.7-3.9 4.5-3.9 2.8 1.8 2.2 3.9m9.1 0c.6-2.2 2.7-3.9 4.5-3.9s2.9 1.7 2.2 3.9c-.6 2.2-2.6 3.9-4.4 3.9h-.2c-1.8 0-2.8-1.7-2.1-3.9m21.6 3.3c-.3.8-3 .7-3.7.7h-6.5c.9-1.2 1.5-2.5 2-3.9 0-.1.1-.3.1-.4.7 1 2.2 1.9 5.1 2.5 2.8.4 3.3.3 3 1.1m6.7-2.2c-.6-2.2-3.1-3.1-6.5-3.5-1.5-.2-2.3-.2-2.1-.9.1-.5.9-.6 2.4-.6h7.6l-1.4 5zm6.7 0s.7-2.3 1.5-5h4.3l.7 7.1c-7.1 1.5-7.3 1.1-6.5-2.1M1 23.9 7.8 0h10.4l-2.1 7.4s0 .1-.1.1l-5.5 19.6h5.2L10.6 40C1.1 39.9-1.6 32.9.8 24.7l.2-.8zM10.7 40l12.5-18.4h-5.3l4.6-11.8c7.9.8 11.7 7.2 9.5 14.9C29.6 33 20.1 40 10.9 40h-.2z"/></g></svg>
