<svg height="34" width="124" xmlns="http://www.w3.org/2000/svg"><g fill="#fff"><path d="M26.254 6.967A25.635 25.635 0 0 0 19.86 5a18.182 18.182 0 0 0-.819 1.665 23.975 23.975 0 0 0-7.086 0A17.659 17.659 0 0 0 11.125 5a25.547 25.547 0 0 0-6.398 1.972C.68 12.96-.417 18.798.132 24.553c2.684 1.962 5.285 3.154 7.842 3.934a19.03 19.03 0 0 0 1.68-2.708 16.67 16.67 0 0 1-2.646-1.26c.222-.161.44-.33.649-.502 5.1 2.335 10.64 2.335 15.68 0 .211.173.428.341.648.502a16.62 16.62 0 0 1-2.65 1.263c.485.95 1.046 1.857 1.68 2.708 2.56-.78 5.163-1.972 7.847-3.937.643-6.672-1.1-12.457-4.608-17.586zM10.348 21.013c-1.53 0-2.786-1.399-2.786-3.103s1.228-3.105 2.786-3.105 2.813 1.399 2.786 3.105c.003 1.704-1.228 3.103-2.786 3.103zm10.297 0c-1.53 0-2.786-1.399-2.786-3.103s1.228-3.105 2.786-3.105 2.813 1.399 2.786 3.105c0 1.704-1.228 3.103-2.786 3.103zM41.648 10.992h6.655c1.604 0 2.96.251 4.071.751 1.11.5 1.94 1.197 2.492 2.09.55.892.829 1.913.829 3.063 0 1.127-.288 2.148-.863 3.062-.576.917-1.45 1.64-2.628 2.175-1.178.534-2.636.802-4.379.802h-6.177zm6.11 8.908c1.079 0 1.91-.27 2.49-.81.58-.54.87-1.277.87-2.21 0-.866-.258-1.556-.774-2.073-.517-.516-1.3-.777-2.345-.777h-2.082v5.87zM65.658 22.92a9.024 9.024 0 0 1-2.492-1.04v-2.833c.559.431 1.307.787 2.246 1.067a9.568 9.568 0 0 0 2.723.417c.41 0 .719-.054.928-.16.21-.108.315-.237.315-.386a.577.577 0 0 0-.17-.427c-.115-.114-.337-.21-.666-.29l-2.048-.46c-1.173-.273-2.004-.651-2.499-1.136-.495-.483-.74-1.117-.74-1.902 0-.66.214-1.233.648-1.723.431-.49 1.045-.868 1.842-1.134.798-.268 1.73-.402 2.8-.402.955 0 1.83.102 2.627.307.797.205 1.455.466 1.98.785v2.68a7.349 7.349 0 0 0-1.853-.761 8.293 8.293 0 0 0-2.16-.28c-1.07 0-1.604.182-1.604.545 0 .17.083.298.248.383.166.085.471.173.912.266l1.707.307c1.114.192 1.945.531 2.491 1.014s.819 1.197.819 2.143c0 1.036-.45 1.857-1.355 2.467-.905.61-2.187.914-3.85.914a11.42 11.42 0 0 1-2.85-.361zM77.74 22.562c-.978-.478-1.717-1.127-2.21-1.946-.492-.819-.74-1.74-.74-2.764 0-1.024.255-1.94.767-2.747s1.263-1.441 2.253-1.902c.99-.46 2.172-.69 3.55-.69 1.706 0 3.122.359 4.248 1.075v3.123a5.322 5.322 0 0 0-1.39-.665 5.498 5.498 0 0 0-1.698-.256c-1.058 0-1.885.192-2.482.58-.597.387-.897.892-.897 1.519 0 .614.29 1.116.87 1.51.58.393 1.421.59 2.526.59.567 0 1.128-.082 1.682-.245a6.268 6.268 0 0 0 1.423-.607v3.02c-1.25.75-2.7 1.126-4.351 1.126-1.39-.005-2.574-.244-3.552-.721zM89.865 22.562c-.985-.478-1.736-1.131-2.253-1.962a5.162 5.162 0 0 1-.777-2.782c0-1.024.258-1.938.777-2.74.52-.802 1.265-1.43 2.245-1.887.978-.456 2.145-.682 3.498-.682 1.353 0 2.52.226 3.498.682.978.456 1.724 1.08 2.236 1.877.512.797.768 1.712.768 2.748 0 1.023-.256 1.95-.768 2.781-.512.831-1.26 1.485-2.245 1.962-.985.478-2.148.717-3.491.717s-2.506-.236-3.488-.714zm5.185-3.028c.414-.414.624-.963.624-1.645 0-.683-.208-1.226-.624-1.629-.415-.404-.98-.607-1.697-.607-.729 0-1.3.203-1.716.607-.415.405-.622.946-.622 1.629 0 .682.207 1.23.622 1.645.414.415.987.624 1.716.624.717-.002 1.282-.21 1.697-.624zM110.11 13.143v3.685c-.434-.285-.994-.426-1.69-.426-.909 0-1.611.275-2.098.826-.49.551-.734 1.41-.734 2.57v3.14h-4.181v-9.983h4.096v3.174c.227-1.16.594-2.016 1.102-2.57.504-.55 1.158-.826 1.952-.826.602 0 1.119.136 1.553.41zM124 10.651v12.286h-4.181v-2.235c-.353.84-.89 1.482-1.611 1.92-.722.437-1.614.656-2.672.656-.946 0-1.77-.229-2.474-.69a4.542 4.542 0 0 1-1.631-1.894c-.38-.802-.573-1.708-.573-2.723-.012-1.045.19-1.984.607-2.815a4.693 4.693 0 0 1 1.758-1.945c.755-.466 1.618-.7 2.586-.7 1.992 0 3.328.865 4.01 2.594V10.65zm-4.805 8.815c.427-.415.639-.953.639-1.612 0-.636-.207-1.155-.622-1.552-.414-.398-.982-.598-1.696-.598-.705 0-1.268.203-1.69.607-.421.405-.631.93-.631 1.578s.21 1.177.631 1.587c.422.41.978.614 1.673.614.704-.003 1.269-.21 1.696-.624zM59.217 14.018c1.151 0 2.085-.839 2.085-1.873 0-1.033-.934-1.872-2.085-1.872s-2.084.839-2.084 1.873c0 1.033.933 1.872 2.084 1.872zM57.13 15.307c1.278.551 2.863.576 4.17 0v7.684h-4.17z"/></g></svg>
