<svg xmlns="http://www.w3.org/2000/svg" viewBox="0 0 900 450">
<path style="fill:#012169" d="M799.38 0H525v137.19L799.38 0zM900 399.69V300H700.62L900 399.69zM900 150V50.31L700.62 150H900zM375 0H100.62L375 137.19V0zM0 300v99.69L199.38 300H0zM100.62 450H375V312.81L100.62 450zM525 450h274.38L525 312.81V450zM0 50.31V150h199.38L0 50.31z"/>
<path style="fill:#c8102e" d="m832.92 0-300 150h134.16L900 33.54V0h-67.08zM532.92 300l300 150H900v-33.54L667.08 300H532.92zM367.08 150 67.08 0H0v33.54L232.92 150h134.16zM232.92 300 0 416.46V450h67.08l300-150H232.92z"/>
<path style="fill:#fff" d="M495 450h30V312.81L799.38 450h33.54l-300-150h134.16L900 416.46v-16.77L700.62 300H900v-30H495v180zM405 0h-30v137.19L100.62 0H67.08l300 150H232.92L0 33.54v16.77L199.38 150H0v30h405V0zM0 270v30h199.38L0 399.69v16.77L232.92 300h134.16l-300 150h33.54L375 312.81V450h30V270H0zM532.92 150l300-150h-33.54L525 137.19V0h-30v180h405v-30H700.62L900 50.31V33.54L667.08 150H532.92z"/>
<path style="fill:#c8102e" d="M495 0h-90v180H0v90h405v180h90V270h405v-90H495V0z"/>
</svg>